999
Inkscape export via OpenSCAD DXF Export
  0
SECTION
  2
HEADER
  9
$ACADVER
  1
AC1014
  9
$HANDSEED
  5
FFFF
  9
$MEASUREMENT
 70
     1
  0
ENDSEC
  0
SECTION
  2
TABLES
  0
TABLE
  2
VPORT
  5
8
330
0
100
AcDbSymbolTable
 70
     4
  0
VPORT
  5
2E
330
8
100
AcDbSymbolTableRecord
100
AcDbViewportTableRecord
  2
*ACTIVE
 70
     0
 10
0.0
 20
0.0
 11
1.0
 21
1.0
 12
210.0
 22
148.5
 13
0.0
 23
0.0
 14
10.0
 24
10.0
 15
10.0
 25
10.0
 16
0.0
 26
0.0
 36
1.0
 17
0.0
 27
0.0
 37
0.0
 40
341.0
 41
1.24
 42
50.0
 43
0.0
 44
0.0
 50
0.0
 51
0.0
 71
     0
 72
   100
 73
     1
 74
     3
 75
     0
 76
     0
 77
     0
 78
     0
  0
ENDTAB
  0
TABLE
  2
LTYPE
  5
5
330
0
100
AcDbSymbolTable
 70
     1
  0
LTYPE
  5
14
330
5
100
AcDbSymbolTableRecord
100
AcDbLinetypeTableRecord
  2
BYBLOCK
 70
     0
  3

 72
    65
 73
     0
 40
0.0
  0
LTYPE
  5
15
330
5
100
AcDbSymbolTableRecord
100
AcDbLinetypeTableRecord
  2
BYLAYER
 70
     0
  3

 72
    65
 73
     0
 40
0.0
  0
LTYPE
  5
16
330
5
100
AcDbSymbolTableRecord
100
AcDbLinetypeTableRecord
  2
CONTINUOUS
 70
     0
  3
Solid line
 72
    65
 73
     0
 40
0.0
  0
ENDTAB
  0
TABLE
0
TABLE
2
LAYER
5
2
330
0
100
AcDbSymbolTable
70
1
0
LAYER
5
10
330
2
100
AcDbSymbolTableRecord
100
AcDbLayerTableRecord
2
Layer_1
70
0
62
7
6
CONTINUOUS
0
ENDTAB
0
ENDSEC
  0
ENDTAB
  0
TABLE
  2
STYLE
  5
3
330
0
100
AcDbSymbolTable
 70
     1
  0
STYLE
  5
11
330
3
100
AcDbSymbolTableRecord
100
AcDbTextStyleTableRecord
  2
STANDARD
 70
     0
 40
0.0
 41
1.0
 50
0.0
 71
     0
 42
2.5
  3
txt
  4

  0
ENDTAB
  0
TABLE
  2
VIEW
  5
6
330
0
100
AcDbSymbolTable
 70
     0
  0
ENDTAB
  0
TABLE
  2
UCS
  5
7
330
0
100
AcDbSymbolTable
 70
     0
  0
ENDTAB
  0
TABLE
  2
APPID
  5
9
330
0
100
AcDbSymbolTable
 70
     2
  0
APPID
  5
12
330
9
100
AcDbSymbolTableRecord
100
AcDbRegAppTableRecord
  2
ACAD
 70
     0
  0
ENDTAB
  0
TABLE
  2
DIMSTYLE
  5
A
330
0
100
AcDbSymbolTable
 70
     1
  0
DIMSTYLE
105
27
330
A
100
AcDbSymbolTableRecord
100
AcDbDimStyleTableRecord
  2
ISO-25
 70
     0
  3

  4

  5

  6

  7

 40
1.0
 41
2.5
 42
0.625
 43
3.75
 44
1.25
 45
0.0
 46
0.0
 47
0.0
 48
0.0
140
2.5
141
2.5
142
0.0
143
0.03937007874016
144
1.0
145
0.0
146
1.0
147
0.625
 71
     0
 72
     0
 73
     0
 74
     0
 75
     0
 76
     0
 77
     1
 78
     8
170
     0
171
     3
172
     1
173
     0
174
     0
175
     0
176
     0
177
     0
178
     0
270
     2
271
     2
272
     2
273
     2
274
     3
340
11
275
     0
280
     0
281
     0
282
     0
283
     0
284
     8
285
     0
286
     0
287
     3
288
     0
  0
ENDTAB
  0
TABLE
  2
BLOCK_RECORD
  5
1
330
0
100
AcDbSymbolTable
 70
     1
  0
BLOCK_RECORD
  5
1F
330
1
100
AcDbSymbolTableRecord
100
AcDbBlockTableRecord
  2
*MODEL_SPACE
  0
BLOCK_RECORD
  5
1B
330
1
100
AcDbSymbolTableRecord
100
AcDbBlockTableRecord
  2
*PAPER_SPACE
  0
ENDTAB
  0
ENDSEC
  0
SECTION
  2
BLOCKS
  0
BLOCK
  5
20
330
1F
100
AcDbEntity
  8
0
100
AcDbBlockBegin
  2
*MODEL_SPACE
 70
     0
 10
0.0
 20
0.0
 30
0.0
  3
*MODEL_SPACE
  1

  0
ENDBLK
  5
21
330
1F
100
AcDbEntity
  8
0
100
AcDbBlockEnd
  0
BLOCK
  5
1C
330
1B
100
AcDbEntity
 67
     1
  8
0
100
AcDbBlockBegin
  2
*PAPER_SPACE
  1

  0
ENDBLK
  5
1D
330
1B
100
AcDbEntity
 67
     1
  8
0
100
AcDbBlockEnd
  0
ENDSEC
  0
SECTION
  2
ENTITIES
0
DIMENSION
5
83
100
AcDbEntity
62
256
370
-1
6
ByLayer
1
total_width
3
Standard
70
0
71
5
72
1
41
1.0
100
AcDbAlignedDimension
13
-29.863776
23
0.000000
33
0.0
14
29.878435
24
0.000000
34
0.0
50
0.000000
100
AcDbRotatedDimension
0
DIMENSION
5
83
100
AcDbEntity
62
256
370
-1
6
ByLayer
1
total_minx
3
Standard
70
0
71
5
72
1
41
1.0
100
AcDbAlignedDimension
13
-29.863776
23
0.000000
33
0.0
14
0.000000
24
0.000000
34
0.0
50
0.000000
100
AcDbRotatedDimension
0
DIMENSION
5
83
100
AcDbEntity
62
256
370
-1
6
ByLayer
1
total_maxx
3
Standard
70
0
71
5
72
1
41
1.0
100
AcDbAlignedDimension
13
0.000000
23
0.000000
33
0.0
14
29.878435
24
0.000000
34
0.0
50
0.000000
100
AcDbRotatedDimension
0
DIMENSION
5
83
100
AcDbEntity
62
256
370
-1
6
ByLayer
1
total_height
3
Standard
70
0
71
5
72
1
41
1.0
100
AcDbAlignedDimension
13
0.000000
23
-29.625616
33
0.0
14
0.000000
24
29.624861
34
0.0
50
90.000000
100
AcDbRotatedDimension
0
DIMENSION
5
83
100
AcDbEntity
62
256
370
-1
6
ByLayer
1
total_miny
3
Standard
70
0
71
5
72
1
41
1.0
100
AcDbAlignedDimension
13
-29.625616
23
0.000000
33
0.0
14
0.000000
24
0.000000
34
0.0
50
0.000000
100
AcDbRotatedDimension
0
DIMENSION
5
83
100
AcDbEntity
62
256
370
-1
6
ByLayer
1
total_maxy
3
Standard
70
0
71
5
72
1
41
1.0
100
AcDbAlignedDimension
13
0.000000
23
0.000000
33
0.0
14
29.624861
24
0.000000
34
0.0
50
0.000000
100
AcDbRotatedDimension
0
DIMENSION
8
Layer_1
5
83
100
AcDbEntity
62
256
370
-1
6
ByLayer
1
Layer_1_width
3
Standard
70
0
71
5
72
1
41
1.0
100
AcDbAlignedDimension
13
-29.863776
23
0.000000
33
0.0
14
29.878435
24
0.000000
34
0.0
50
0.000000
100
AcDbRotatedDimension
0
DIMENSION
8
Layer_1
5
83
100
AcDbEntity
62
256
370
-1
6
ByLayer
1
Layer_1_minx
3
Standard
70
0
71
5
72
1
41
1.0
100
AcDbAlignedDimension
13
-29.863776
23
0.000000
33
0.0
14
0.000000
24
0.000000
34
0.0
50
0.000000
100
AcDbRotatedDimension
0
DIMENSION
8
Layer_1
5
83
100
AcDbEntity
62
256
370
-1
6
ByLayer
1
Layer_1_maxx
3
Standard
70
0
71
5
72
1
41
1.0
100
AcDbAlignedDimension
13
0.000000
23
0.000000
33
0.0
14
29.878435
24
0.000000
34
0.0
50
0.000000
100
AcDbRotatedDimension
0
DIMENSION
8
Layer_1
5
83
100
AcDbEntity
62
256
370
-1
6
ByLayer
1
Layer_1_height
3
Standard
70
0
71
5
72
1
41
1.0
100
AcDbAlignedDimension
13
0.000000
23
-29.625616
33
0.0
14
0.000000
24
29.624861
34
0.0
50
90.000000
100
AcDbRotatedDimension
0
DIMENSION
8
Layer_1
5
83
100
AcDbEntity
62
256
370
-1
6
ByLayer
1
Layer_1_miny
3
Standard
70
0
71
5
72
1
41
1.0
100
AcDbAlignedDimension
13
-29.625616
23
0.000000
33
0.0
14
0.000000
24
0.000000
34
0.0
50
0.000000
100
AcDbRotatedDimension
0
DIMENSION
8
Layer_1
5
83
100
AcDbEntity
62
256
370
-1
6
ByLayer
1
Layer_1_maxy
3
Standard
70
0
71
5
72
1
41
1.0
100
AcDbAlignedDimension
13
0.000000
23
0.000000
33
0.0
14
29.624861
24
0.000000
34
0.0
50
0.000000
100
AcDbRotatedDimension
62
0
0
LWPOLYLINE
100
AcDbPolyline
8
Layer_1
90
22
70
0
10
-8.209800
20
-12.948047
30
0.0
10
-6.241962
20
-12.332891
30
0.0
10
-6.319132
20
-12.142170
30
0.0
10
-6.623144
20
-11.291249
30
0.0
10
-7.298504
20
-8.980262
30
0.0
10
-8.032361
20
-5.467694
30
0.0
10
-8.511866
20
-1.012031
30
0.0
10
-8.511866
20
-1.009826
30
0.0
10
-8.521926
20
2.777436
30
0.0
10
-8.158262
20
6.446463
30
0.0
10
-7.422941
20
9.984851
30
0.0
10
-6.318030
20
13.380200
30
0.0
10
-6.217708
20
13.640373
30
0.0
10
-8.493125
20
13.640373
30
0.0
10
-8.530607
20
13.495955
30
0.0
10
-9.322842
20
9.619671
30
0.0
10
-9.854627
20
5.081102
30
0.0
10
-10.067775
20
0.230442
30
0.0
10
-9.873092
20
-4.371137
30
0.0
10
-9.272027
20
-8.708133
30
0.0
10
-8.266024
20
-12.765043
30
0.0
10
-8.209800
20
-12.948047
30
0.0
62
0
0
LWPOLYLINE
100
AcDbPolyline
8
Layer_1
90
153
70
0
10
26.683229
20
-4.386571
30
0.0
10
26.266233
20
-6.956449
30
0.0
10
25.611305
20
-9.467674
30
0.0
10
24.729492
20
-11.903864
30
0.0
10
23.631839
20
-14.248639
30
0.0
10
22.329393
20
-16.485617
30
0.0
10
20.833199
20
-18.598417
30
0.0
10
19.154302
20
-20.570656
30
0.0
10
17.303750
20
-22.385955
30
0.0
10
14.847414
20
-24.013605
30
0.0
10
12.237599
20
-25.369941
30
0.0
10
9.502831
20
-26.447199
30
0.0
10
6.671634
20
-27.237614
30
0.0
10
3.772535
20
-27.733421
30
0.0
10
0.834058
20
-27.926857
30
0.0
10
-2.115271
20
-27.810156
30
0.0
10
-5.046927
20
-27.375556
30
0.0
10
-7.027788
20
-26.891468
30
0.0
10
-8.964414
20
-26.261963
30
0.0
10
-12.670234
20
-24.591918
30
0.0
10
-15.787908
20
-22.631797
30
0.0
10
-17.789922
20
-21.022248
30
0.0
10
-16.530257
20
-19.568142
30
0.0
10
-15.256537
20
-18.405078
30
0.0
10
-12.944740
20
-17.160434
30
0.0
10
-11.418976
20
-16.605912
30
0.0
10
-8.982604
20
-16.037057
30
0.0
10
-5.016748
20
-15.257363
30
0.0
10
-0.823516
20
-14.284193
30
0.0
10
-0.247771
20
-16.009772
30
0.0
10
0.485069
20
-17.680781
30
0.0
10
0.836745
20
-17.535260
30
0.0
10
0.144418
20
-14.047170
30
0.0
10
4.365625
20
-12.952457
30
0.0
10
9.733359
20
-11.274695
30
0.0
10
12.543110
20
-10.181618
30
0.0
10
15.332604
20
-8.866849
30
0.0
10
17.174559
20
-7.826534
30
0.0
10
18.987988
20
-6.543752
30
0.0
10
20.559572
20
-4.977784
30
0.0
10
21.188009
20
-4.075880
30
0.0
10
21.675990
20
-3.087908
30
0.0
10
22.026067
20
-1.726813
30
0.0
10
22.023634
20
-0.399373
30
0.0
10
21.721839
20
0.883187
30
0.0
10
21.173832
20
2.109639
30
0.0
10
20.432762
20
3.268756
30
0.0
10
19.551778
20
4.349313
30
0.0
10
17.582665
20
6.229835
30
0.0
10
14.583968
20
8.571690
30
0.0
10
11.502071
20
10.658161
30
0.0
10
8.348035
20
12.482322
30
0.0
10
5.132917
20
14.037248
30
0.0
10
2.391516
20
15.131256
30
0.0
10
-0.344510
20
16.015146
30
0.0
10
-3.065653
20
16.685924
30
0.0
10
-5.762405
20
17.140590
30
0.0
10
-8.735246
20
17.385054
30
0.0
10
-11.493941
20
17.323594
30
0.0
10
-13.927419
20
16.982667
30
0.0
10
-15.135114
20
16.629062
30
0.0
10
-16.264158
20
16.091076
30
0.0
10
-16.502283
20
15.947760
30
0.0
10
-13.479418
20
13.610607
30
0.0
10
-13.387917
20
13.637066
30
0.0
10
-9.657843
20
14.406287
30
0.0
10
-5.901311
20
14.664531
30
0.0
10
-2.753062
20
14.483044
30
0.0
10
0.314882
20
13.940235
30
0.0
10
3.292082
20
13.038584
30
0.0
10
6.168099
20
11.780573
30
0.0
10
10.193211
20
9.638688
30
0.0
10
14.371285
20
7.044531
30
0.0
10
16.314801
20
5.657674
30
0.0
10
18.329010
20
3.965718
30
0.0
10
19.242607
20
3.008300
30
0.0
10
20.029854
20
1.978174
30
0.0
10
20.642745
20
0.876527
30
0.0
10
21.033273
20
-0.295451
30
0.0
10
21.106533
20
-1.256065
30
0.0
10
20.909938
20
-2.185155
30
0.0
10
20.451448
20
-3.060709
30
0.0
10
19.739019
20
-3.860712
30
0.0
10
18.375898
20
-4.933687
30
0.0
10
16.893921
20
-5.862175
30
0.0
10
13.868576
20
-7.364236
30
0.0
10
10.451868
20
-8.745392
30
0.0
10
6.955786
20
-9.912091
30
0.0
10
-0.231510
20
-11.858845
30
0.0
10
-0.745105
20
-8.225234
30
0.0
10
-1.042899
20
-4.952118
30
0.0
10
-1.055164
20
-0.965591
30
0.0
10
-0.611849
20
3.626996
30
0.0
10
0.573264
20
10.361745
30
0.0
10
0.838950
20
11.538038
30
0.0
10
0.845564
20
11.662165
30
0.0
10
0.709965
20
11.778644
30
0.0
10
-0.483967
20
12.259028
30
0.0
10
-0.697838
20
12.341710
30
0.0
10
-0.864306
20
12.408958
30
0.0
10
-0.941476
20
12.248004
30
0.0
10
-1.675005
20
10.036528
30
0.0
10
-2.060443
20
7.861432
30
0.0
10
-2.467653
20
3.956486
30
0.0
10
-2.592917
20
-0.610746
30
0.0
10
-2.361544
20
-5.870856
30
0.0
10
-1.681207
20
-10.673732
30
0.0
10
-1.370321
20
-12.147682
30
0.0
10
-7.132726
20
-13.777075
30
0.0
10
-8.262717
20
-14.062604
30
0.0
10
-8.369653
20
-14.091268
30
0.0
10
-11.756871
20
-15.253643
30
0.0
10
-13.356015
20
-16.047582
30
0.0
10
-14.889427
20
-17.017118
30
0.0
10
-16.638433
20
-18.490103
30
0.0
10
-17.785512
20
-19.977144
30
0.0
10
-18.246328
20
-20.619861
30
0.0
10
-20.258471
20
-18.584619
30
0.0
10
-22.045304
20
-16.349183
30
0.0
10
-23.579956
20
-13.927091
30
0.0
10
-24.835556
20
-11.331884
30
0.0
10
-25.947753
20
-8.034376
30
0.0
10
-26.615843
20
-4.620286
30
0.0
10
-26.830628
20
-1.148319
30
0.0
10
-26.582908
20
2.322821
30
0.0
10
-25.836631
20
5.758167
30
0.0
10
-24.624440
20
9.015126
30
0.0
10
-23.010413
20
12.101759
30
0.0
10
-21.058629
20
15.026129
30
0.0
10
-19.167891
20
17.338597
30
0.0
10
-17.044403
20
19.431028
30
0.0
10
-14.690645
20
21.254120
30
0.0
10
-12.109097
20
22.758576
30
0.0
10
-9.416841
20
23.867725
30
0.0
10
-6.616375
20
24.623613
30
0.0
10
-3.744181
20
25.055800
30
0.0
10
-0.836745
20
25.193845
30
0.0
10
2.593812
20
25.063828
30
0.0
10
5.999151
20
24.630779
30
0.0
10
9.328836
20
23.830208
30
0.0
10
12.532431
20
22.597621
30
0.0
10
14.809949
20
21.387101
30
0.0
10
16.953728
20
19.968738
30
0.0
10
18.950333
20
18.358345
30
0.0
10
20.786328
20
16.571736
30
0.0
10
22.379261
20
14.283749
30
0.0
10
23.744339
20
11.860189
30
0.0
10
24.873230
20
9.321442
30
0.0
10
25.757601
20
6.687895
30
0.0
10
26.389119
20
3.979934
30
0.0
10
26.759452
20
1.217945
30
0.0
10
26.860266
20
-1.577686
30
0.0
10
26.683229
20
-4.386571
30
0.0
62
0
0
LWPOLYLINE
100
AcDbPolyline
8
Layer_1
90
68
70
0
10
25.952318
20
14.580746
30
0.0
10
23.985422
20
17.564460
30
0.0
10
21.687255
20
20.277298
30
0.0
10
19.093860
20
22.694573
30
0.0
10
16.241283
20
24.791596
30
0.0
10
13.165566
20
26.543679
30
0.0
10
9.902755
20
27.926134
30
0.0
10
6.488893
20
28.914271
30
0.0
10
2.960026
20
29.483403
30
0.0
10
0.023614
20
29.624861
30
0.0
10
-2.899892
20
29.475910
30
0.0
10
-5.787560
20
29.043488
30
0.0
10
-8.616459
20
28.334532
30
0.0
10
-11.363658
20
27.355981
30
0.0
10
-14.006225
20
26.114771
30
0.0
10
-16.521229
20
24.617841
30
0.0
10
-18.885738
20
22.872127
30
0.0
10
-20.977520
20
20.986673
30
0.0
10
-22.877208
20
18.918776
30
0.0
10
-24.573472
20
16.687117
30
0.0
10
-26.054982
20
14.310376
30
0.0
10
-27.310407
20
11.807234
30
0.0
10
-28.328417
20
9.196372
30
0.0
10
-29.097683
20
6.496473
30
0.0
10
-29.606875
20
3.726215
30
0.0
10
-29.863776
20
0.611246
30
0.0
10
-29.800076
20
-2.529665
30
0.0
10
-29.404407
20
-5.645151
30
0.0
10
-28.665399
20
-8.683845
30
0.0
10
-27.608961
20
-11.316140
30
0.0
10
-26.197608
20
-13.754750
30
0.0
10
-24.543170
20
-16.049907
30
0.0
10
-22.757474
20
-18.251840
30
0.0
10
-22.708967
20
-18.281606
30
0.0
10
-21.395972
20
-19.859184
30
0.0
10
-19.036771
20
-22.196337
30
0.0
10
-19.274896
20
-23.337352
30
0.0
10
-18.900069
20
-23.399088
30
0.0
10
-18.620052
20
-22.562344
30
0.0
10
-15.415011
20
-25.014838
30
0.0
10
-11.923889
20
-27.024982
30
0.0
10
-8.749853
20
-28.294294
30
0.0
10
-5.485694
20
-29.106371
30
0.0
10
-5.343481
20
-29.195668
30
0.0
10
-2.765998
20
-29.482300
30
0.0
10
-2.139818
20
-29.525295
30
0.0
10
-1.870825
20
-29.542934
30
0.0
10
0.501606
20
-29.625616
30
0.0
10
4.080214
20
-29.408655
30
0.0
10
7.589046
20
-28.768838
30
0.0
10
10.986334
20
-27.722767
30
0.0
10
14.230311
20
-26.287043
30
0.0
10
17.279210
20
-24.478267
30
0.0
10
20.091263
20
-22.313039
30
0.0
10
22.624702
20
-19.807962
30
0.0
10
24.837760
20
-16.979635
30
0.0
10
26.715475
20
-13.777212
30
0.0
10
28.138437
20
-10.373871
30
0.0
10
28.277344
20
-9.982509
30
0.0
10
28.393099
20
-9.613194
30
0.0
10
29.209742
20
-6.588726
30
0.0
10
29.704647
20
-3.505436
30
0.0
10
29.878435
20
-0.392769
30
0.0
10
29.731725
20
2.719834
30
0.0
10
29.265139
20
5.802930
30
0.0
10
28.479295
20
8.827075
30
0.0
10
27.374815
20
11.762828
30
0.0
10
25.952318
20
14.580746
30
0.0
62
0
0
LWPOLYLINE
100
AcDbPolyline
8
Layer_1
90
4
70
0
10
-29.785469
20
3.936780
30
0.0
10
-29.789879
20
3.883863
30
0.0
10
-29.774444
20
4.007335
30
0.0
10
-29.785469
20
3.936780
30
0.0
62
0
0
LWPOLYLINE
100
AcDbPolyline
8
Layer_1
90
19
70
0
10
6.624505
20
2.947899
30
0.0
10
6.887125
20
3.830739
30
0.0
10
7.328131
20
4.444449
30
0.0
10
7.963028
20
4.802670
30
0.0
10
8.807318
20
4.919045
30
0.0
10
9.938412
20
4.785651
30
0.0
10
10.983378
20
4.370000
30
0.0
10
11.826599
20
3.601916
30
0.0
10
12.324622
20
2.490287
30
0.0
10
12.333993
20
1.044002
30
0.0
10
11.965213
20
-0.030506
30
0.0
10
11.300327
20
-0.679511
30
0.0
10
10.324348
20
-0.925646
30
0.0
10
9.022292
20
-0.791545
30
0.0
10
8.017909
20
-0.405539
30
0.0
10
7.162767
20
0.329489
30
0.0
10
6.637941
20
1.438861
30
0.0
10
6.555982
20
2.141839
30
0.0
10
6.624505
20
2.947899
30
0.0
62
0
0
LWPOLYLINE
100
AcDbPolyline
8
Layer_1
90
28
70
0
10
8.702587
20
-2.267700
30
0.0
10
10.156693
20
-2.436371
30
0.0
10
11.522707
20
-2.225118
30
0.0
10
12.604088
20
-1.604588
30
0.0
10
13.377891
20
-0.594623
30
0.0
10
13.821172
20
0.784931
30
0.0
10
13.911425
20
1.896476
30
0.0
10
13.790579
20
2.891761
30
0.0
10
13.487626
20
3.767907
30
0.0
10
13.031556
20
4.522032
30
0.0
10
12.451359
20
5.151255
30
0.0
10
11.776025
20
5.652695
30
0.0
10
10.255912
20
6.260703
30
0.0
10
9.239701
20
6.409971
30
0.0
10
8.321611
20
6.399816
30
0.0
10
7.506331
20
6.234116
30
0.0
10
6.798551
20
5.916745
30
0.0
10
6.202961
20
5.451579
30
0.0
10
5.724250
20
4.842495
30
0.0
10
5.367108
20
4.093368
30
0.0
10
5.136224
20
3.208073
30
0.0
10
5.046290
20
2.097613
30
0.0
10
5.167299
20
1.103102
30
0.0
10
5.470312
20
0.227422
30
0.0
10
5.926391
20
-0.526548
30
0.0
10
6.506597
20
-1.155926
30
0.0
10
7.181991
20
-1.657832
30
0.0
10
8.702587
20
-2.267700
30
0.0
  0
ENDSEC
  0
SECTION
  2
OBJECTS
  0
DICTIONARY
  5
C
330
0
100
AcDbDictionary
  3
ACAD_GROUP
350
D
  3
ACAD_MLINESTYLE
350
17
  0
DICTIONARY
  5
D
330
C
100
AcDbDictionary
  0
DICTIONARY
  5
1A
330
C
100
AcDbDictionary
  0
DICTIONARY
  5
17
330
C
100
AcDbDictionary
  3
STANDARD
350
18
  0
DICTIONARY
  5
19
330
C
100
AcDbDictionary
  0
ENDSEC
  0
EOF
